<?xml version="1.0" encoding="utf-8"?>
<!-- Generator: Adobe Illustrator 25.4.1, SVG Export Plug-In . SVG Version: 6.00 Build 0)  -->
<svg version="1.1" id="Camada_1" xmlns="http://www.w3.org/2000/svg" xmlns:xlink="http://www.w3.org/1999/xlink" x="0px" y="0px"
	 viewBox="0 0 1150.8 276.7" style="enable-background:new 0 0 1150.8 276.7;" xml:space="preserve">
<style type="text/css">
	.st0{fill:#782DC8;}
</style>
<path class="st0" d="M226.8,73.9c6.9,1.1,13.7,2.3,20.5,3.6l-40.7,128.9c-19.5-10.9-45.7-17.6-74.4-17.6c-28.8,0-54.9,6.7-74.5,17.6
	L17,77.4c6.7-1.3,13.6-2.5,20.5-3.6C48.1,102.4,61,119.2,75,119.2c15.1,0,29-19.5,40-52.3c3.4-9.9,6.4-21.1,9.2-33.3
	c2.6,0,5.2,0,7.8,0c2.6,0,5.2,0,7.8,0c2.8,12.2,5.9,23.3,9.2,33.3c11.1,32.8,24.9,52.3,40,52.3C203.2,119.2,216.1,102.4,226.8,73.9z
	 M434.5,31.6c-10.8,0-18.8,7.5-18.8,18.1c0,10.8,8,18.4,18.8,18.4c10.2,0,19-6.9,19-18.4C453.5,38.9,445.5,31.6,434.5,31.6z
	 M538.9,79.4c-16.6,0-29.4,8.6-35.6,23.9V81.4h-29.6v109.9h33v-58.6c0-13.7,7.7-23.7,20.8-23.7c11.5,0,17.9,6,17.9,17.5v64.8h33v-69
	C578.3,97.5,564.3,79.4,538.9,79.4z M418.1,191.3h33V81.4h-33V191.3z M403.7,81.4h-39.2l-35,43.6V48.9h-33v142.5h33v-46.7l34.1,46.7
	h40.9l-44.2-58.4L403.7,81.4z M1013.4,126.5c-10.8-4-19.5-6.4-19.5-14.8c0-8.6,8.4-12.4,19.7-12.4c7.5,0,17.7,2.7,24.1,6.4l6.9-16.1
	c-10.4-5.5-20.8-8.4-31.4-8.4c-21.5,0-38.9,12.2-38.9,31.9c0,18.6,12.6,25.2,33.2,32.5c11.7,4,21,7.1,21,16.1
	c0,9.7-8.8,13.3-18.6,13.3c-11.5,0-20.8-2.9-30.1-8.4L972,182c9.3,6.9,23.2,11.1,38,11.1c20.8,0,38.3-10.6,38.3-32.7
	C1048.3,140.7,1034.8,134.5,1013.4,126.5z M1132.8,100.6V82.9H1095V54.2h-19.7v28.8h-19.9v17.7h19.9v54c0,23.9,12.2,38.5,36.9,38.5
	c7.5,0,13.1-1.3,20.6-4.6v-17.7c-5.3,2.2-11.7,4-18.4,4c-11.9,0-19.5-6.2-19.5-19.5v-54.6H1132.8z M674.3,81.4h30.1v101.5
	c0,39.2-21,61.3-57.5,61.3c-16.6,0-34.7-5.1-46.2-13.5l13.5-24.3c8.4,5.3,20.4,8.8,30.5,8.8c17.3,0,27.4-11.9,27.4-29.6v-9.3
	c-7.1,10.6-18.6,15-30.5,15c-29.6,0-46-22.1-46-52.9c0-33.4,19.9-59.1,50-59.1c11.9,0,21.9,4.6,28.8,12.4V81.4z M672,111.9
	c-6.2-4.4-11.7-6.2-18.4-6.2c-10.2,0-18.1,5.1-22.1,14.4c-2.2,4.6-3.1,10-3.1,16.1c0,17.7,8.2,30.1,23.2,30.1
	c12.8,0,20.4-11.7,20.4-23.7V111.9z M959.6,137.1c0,31.9-21.5,56-51.3,56c-30.5,0-51.5-24.8-51.5-56c0-31.9,21.7-56,51.5-56
	C938.4,81.2,959.6,105.7,959.6,137.1z M939.3,137.1c0-21.7-11.9-38.3-31-38.3c-19.9,0-31.2,17.5-31.2,38.3
	c0,21.7,12.2,38.3,31.2,38.3C928.2,175.4,939.3,157.9,939.3,137.1z M817.4,109.3H749V48.9h-19.9v142.5H749v-63.3h68.4v63.3h19.9
	V48.9h-19.9V109.3z"/>
</svg>
